<svg width="631" height="459" viewBox="0 0 631 459" fill="none" xmlns="http://www.w3.org/2000/svg">
<g clip-path="url(#clip0_31_118)">
<path d="M367.557 80.9163C379.383 80.9163 388.97 71.3279 388.97 59.5C388.97 47.6721 379.383 38.0837 367.557 38.0837C355.73 38.0837 346.144 47.6721 346.144 59.5C346.144 71.3279 355.73 80.9163 367.557 80.9163Z" fill="#F2F2F2"/>
<path d="M533.664 398.759C565.492 374.512 580.694 333.769 571.177 294.903C570.94 293.937 570.691 292.973 570.428 292.012C564.119 268.941 548.509 247.015 525.759 239.643C506.656 233.453 485.805 238.213 465.877 235.752C426.756 230.92 396.426 199.261 375.086 166.115C353.745 132.968 337.344 95.8656 308.987 68.4817C262.244 23.3441 185.996 13.6259 128.042 43.0071C70.0889 72.3885 33.1731 137.573 34.7474 202.538C36.3219 267.503 74.8827 329.614 130.883 362.568C151.455 374.674 175.248 383.25 198.928 380.249C219.474 377.645 238.143 366.604 258.593 363.325C290.744 358.171 322.691 372.71 350.5 389.653C378.308 406.595 405.169 426.677 436.77 434.532C467.455 442.158 505.469 420.237 533.664 398.759Z" fill="#F2F2F2"/>
<path d="M487.935 44.3714C487.237 43.9062 486.531 43.465 485.834 43.0159C465.665 30.1149 444.048 19.6343 421.428 11.7906L416.183 84.1548H382.934V1.22716C380.841 0.794034 378.732 0.384971 376.622 -3.05176e-05V84.1548H337.11C315.357 84.1548 294.496 75.5125 279.115 60.129C263.734 44.7456 255.093 23.8811 255.093 2.12559C252.976 2.58278 250.875 3.07198 248.774 3.59334V84.1549H216.591L211.595 15.1514C188.349 24.0676 166.281 35.7929 145.882 50.0662C145.529 50.3068 145.176 50.5555 144.831 50.7961C143.059 52.0393 141.311 53.3066 139.57 54.59V330.66H234.418L232.742 307.44L223.52 179.948H409.246L400.024 307.44L398.348 330.66H492.145V47.1626C490.75 46.2162 489.346 45.2858 487.935 44.3714ZM248.774 158.893H221.996L217.048 90.4753H248.774V158.893ZM376.622 158.893H331.648V157.538C331.648 156.886 331.52 156.241 331.27 155.639C331.021 155.037 330.655 154.49 330.194 154.03C329.733 153.569 329.186 153.204 328.583 152.956C327.981 152.707 327.336 152.58 326.684 152.581H307.132C306.481 152.581 305.837 152.709 305.235 152.958C304.634 153.207 304.088 153.572 303.627 154.032C303.167 154.492 302.802 155.039 302.553 155.64C302.304 156.242 302.176 156.887 302.176 157.538V158.893H255.093V90.4753H376.622V158.893ZM382.934 158.893V90.4753H415.726L410.778 158.893H382.934Z" fill="#3F3D56"/>
<path d="M0 348.339C6.96685 356.595 14.5023 364.354 22.5512 371.559L608.449 372.361C616.498 365.156 624.033 357.397 631 349.141L0 348.339Z" fill="#3F3D56"/>
<path d="M397.316 273.986V342.728C397.317 343.604 397.665 344.444 398.284 345.063C398.904 345.682 399.744 346.031 400.619 346.031H502.472C503.348 346.031 504.188 345.682 504.807 345.063C505.427 344.444 505.775 343.604 505.776 342.728V273.986C505.774 273.11 505.425 272.272 504.806 271.653C504.186 271.034 503.347 270.687 502.472 270.685H400.619C399.744 270.687 398.905 271.035 398.286 271.653C397.667 272.272 397.318 273.11 397.316 273.986Z" fill="#3F3D56"/>
<path d="M399.706 274.841V341.88C399.706 342.348 399.893 342.796 400.224 343.127C400.554 343.458 401.003 343.645 401.471 343.645H501.624C502.092 343.645 502.541 343.458 502.872 343.127C503.203 342.796 503.389 342.348 503.39 341.88V274.841C503.39 274.372 503.204 273.923 502.873 273.591C502.542 273.259 502.093 273.073 501.624 273.072H401.471C401.002 273.073 400.553 273.259 400.223 273.591C399.892 273.923 399.706 274.372 399.706 274.841Z" fill="#8B5CF6"/>
<path d="M395.186 356.134C395.373 356.368 395.61 356.557 395.88 356.686C396.15 356.815 396.445 356.881 396.745 356.88H505.805C506.103 356.88 506.398 356.813 506.667 356.684C506.936 356.556 507.173 356.369 507.361 356.137C507.549 355.906 507.683 355.635 507.753 355.345C507.823 355.055 507.828 354.753 507.767 354.461L506.074 346.418C506.004 346.09 505.852 345.785 505.634 345.531C505.416 345.276 505.137 345.08 504.824 344.96C504.597 344.871 504.356 344.826 504.112 344.826H398.431C398.187 344.826 397.946 344.871 397.719 344.96C397.405 345.08 397.127 345.276 396.909 345.531C396.69 345.785 396.539 346.09 396.469 346.418L394.776 354.461C394.716 354.753 394.721 355.055 394.792 355.344C394.863 355.633 394.998 355.903 395.186 356.134Z" fill="#2F2E41"/>
<path d="M500.37 348.29H502.946C503.162 348.29 503.337 348.115 503.337 347.899V346.666C503.337 346.45 503.162 346.274 502.946 346.274H500.37C500.154 346.274 499.978 346.45 499.978 346.666V347.899C499.978 348.115 500.154 348.29 500.37 348.29Z" fill="#3F3D56"/>
<path d="M493.652 348.29H496.228C496.444 348.29 496.62 348.115 496.62 347.899V346.666C496.62 346.45 496.444 346.274 496.228 346.274H493.652C493.436 346.274 493.261 346.45 493.261 346.666V347.899C493.261 348.115 493.436 348.29 493.652 348.29Z" fill="#3F3D56"/>
<path d="M486.934 348.29H489.51C489.726 348.29 489.901 348.115 489.901 347.899V346.666C489.901 346.45 489.726 346.274 489.51 346.274H486.934C486.718 346.274 486.542 346.45 486.542 346.666V347.899C486.542 348.115 486.718 348.29 486.934 348.29Z" fill="#3F3D56"/>
<path d="M480.216 348.29H482.792C483.008 348.29 483.183 348.115 483.183 347.899V346.666C483.183 346.45 483.008 346.274 482.792 346.274H480.216C480 346.274 479.824 346.45 479.824 346.666V347.899C479.824 348.115 480 348.29 480.216 348.29Z" fill="#3F3D56"/>
<path d="M473.498 348.29H476.074C476.29 348.29 476.465 348.115 476.465 347.899V346.666C476.465 346.45 476.29 346.274 476.074 346.274H473.498C473.282 346.274 473.106 346.45 473.106 346.666V347.899C473.106 348.115 473.282 348.29 473.498 348.29Z" fill="#3F3D56"/>
<path d="M466.78 348.29H469.356C469.572 348.29 469.747 348.115 469.747 347.899V346.666C469.747 346.45 469.572 346.274 469.356 346.274H466.78C466.564 346.274 466.388 346.45 466.388 346.666V347.899C466.388 348.115 466.564 348.29 466.78 348.29Z" fill="#3F3D56"/>
<path d="M460.062 348.29H462.638C462.854 348.29 463.029 348.115 463.029 347.899V346.666C463.029 346.45 462.854 346.274 462.638 346.274H460.062C459.846 346.274 459.67 346.45 459.67 346.666V347.899C459.67 348.115 459.846 348.29 460.062 348.29Z" fill="#3F3D56"/>
<path d="M453.344 348.29H455.92C456.136 348.29 456.311 348.115 456.311 347.899V346.666C456.311 346.45 456.136 346.274 455.92 346.274H453.344C453.128 346.274 452.952 346.45 452.952 346.666V347.899C452.952 348.115 453.128 348.29 453.344 348.29Z" fill="#3F3D56"/>
<path d="M446.626 348.29H449.202C449.418 348.29 449.593 348.115 449.593 347.899V346.666C449.593 346.45 449.418 346.274 449.202 346.274H446.626C446.41 346.274 446.234 346.45 446.234 346.666V347.899C446.234 348.115 446.41 348.29 446.626 348.29Z" fill="#3F3D56"/>
<path d="M439.908 348.29H442.484C442.7 348.29 442.875 348.115 442.875 347.899V346.666C442.875 346.45 442.7 346.274 442.484 346.274H439.908C439.692 346.274 439.516 346.45 439.516 346.666V347.899C439.516 348.115 439.692 348.29 439.908 348.29Z" fill="#3F3D56"/>
<path d="M433.19 348.29H435.766C435.982 348.29 436.157 348.115 436.157 347.899V346.666C436.157 346.45 435.982 346.274 435.766 346.274H433.19C432.973 346.274 432.798 346.45 432.798 346.666V347.899C432.798 348.115 432.973 348.29 433.19 348.29Z" fill="#3F3D56"/>
<path d="M426.472 348.29H429.048C429.264 348.29 429.439 348.115 429.439 347.899V346.666C429.439 346.45 429.264 346.274 429.048 346.274H426.472C426.255 346.274 426.08 346.45 426.08 346.666V347.899C426.08 348.115 426.255 348.29 426.472 348.29Z" fill="#3F3D56"/>
<path d="M419.754 348.29H422.33C422.546 348.29 422.721 348.115 422.721 347.899V346.666C422.721 346.45 422.546 346.274 422.33 346.274H419.754C419.537 346.274 419.362 346.45 419.362 346.666V347.899C419.362 348.115 419.537 348.29 419.754 348.29Z" fill="#3F3D56"/>
<path d="M413.036 348.29H415.612C415.828 348.29 416.003 348.115 416.003 347.899V346.666C416.003 346.45 415.828 346.274 415.612 346.274H413.036C412.819 346.274 412.644 346.45 412.644 346.666V347.899C412.644 348.115 412.819 348.29 413.036 348.29Z" fill="#3F3D56"/>
<path d="M406.318 348.29H408.894C409.11 348.29 409.285 348.115 409.285 347.899V346.666C409.285 346.45 409.11 346.274 408.894 346.274H406.318C406.101 346.274 405.926 346.45 405.926 346.666V347.899C405.926 348.115 406.101 348.29 406.318 348.29Z" fill="#3F3D56"/>
<path d="M399.6 348.29H402.176C402.392 348.29 402.567 348.115 402.567 347.899V346.666C402.567 346.45 402.392 346.274 402.176 346.274H399.6C399.383 346.274 399.208 346.45 399.208 346.666V347.899C399.208 348.115 399.383 348.29 399.6 348.29Z" fill="#3F3D56"/>
<path d="M500.449 351.65H503.025C503.242 351.65 503.417 351.474 503.417 351.258V350.026C503.417 349.809 503.242 349.634 503.025 349.634H500.449C500.233 349.634 500.058 349.809 500.058 350.026V351.258C500.058 351.474 500.233 351.65 500.449 351.65Z" fill="#3F3D56"/>
<path d="M493.731 351.65H496.307C496.524 351.65 496.699 351.474 496.699 351.258V350.026C496.699 349.809 496.524 349.634 496.307 349.634H493.731C493.515 349.634 493.34 349.809 493.34 350.026V351.258C493.34 351.474 493.515 351.65 493.731 351.65Z" fill="#3F3D56"/>
<path d="M487.013 351.65H489.589C489.806 351.65 489.981 351.474 489.981 351.258V350.026C489.981 349.809 489.806 349.634 489.589 349.634H487.013C486.797 349.634 486.622 349.809 486.622 350.026V351.258C486.622 351.474 486.797 351.65 487.013 351.65Z" fill="#3F3D56"/>
<path d="M480.295 351.65H482.871C483.087 351.65 483.263 351.474 483.263 351.258V350.026C483.263 349.809 483.087 349.634 482.871 349.634H480.295C480.079 349.634 479.904 349.809 479.904 350.026V351.258C479.904 351.474 480.079 351.65 480.295 351.65Z" fill="#3F3D56"/>
<path d="M473.577 351.65H476.153C476.369 351.65 476.545 351.474 476.545 351.258V350.026C476.545 349.809 476.369 349.634 476.153 349.634H473.577C473.361 349.634 473.186 349.809 473.186 350.026V351.258C473.186 351.474 473.361 351.65 473.577 351.65Z" fill="#3F3D56"/>
<path d="M466.859 351.65H469.435C469.651 351.65 469.827 351.474 469.827 351.258V350.026C469.827 349.809 469.651 349.634 469.435 349.634H466.859C466.643 349.634 466.468 349.809 466.468 350.026V351.258C466.468 351.474 466.643 351.65 466.859 351.65Z" fill="#3F3D56"/>
<path d="M460.141 351.65H462.717C462.933 351.65 463.109 351.474 463.109 351.258V350.026C463.109 349.809 462.933 349.634 462.717 349.634H460.141C459.925 349.634 459.75 349.809 459.75 350.026V351.258C459.75 351.474 459.925 351.65 460.141 351.65Z" fill="#3F3D56"/>
<path d="M453.423 351.65H455.999C456.215 351.65 456.391 351.474 456.391 351.258V350.026C456.391 349.809 456.215 349.634 455.999 349.634H453.423C453.207 349.634 453.032 349.809 453.032 350.026V351.258C453.032 351.474 453.207 351.65 453.423 351.65Z" fill="#3F3D56"/>
<path d="M446.705 351.65H449.281C449.497 351.65 449.673 351.474 449.673 351.258V350.026C449.673 349.809 449.497 349.634 449.281 349.634H446.705C446.489 349.634 446.314 349.809 446.314 350.026V351.258C446.314 351.474 446.489 351.65 446.705 351.65Z" fill="#3F3D56"/>
<path d="M439.987 351.65H442.563C442.779 351.65 442.955 351.474 442.955 351.258V350.026C442.955 349.809 442.779 349.634 442.563 349.634H439.987C439.771 349.634 439.596 349.809 439.596 350.026V351.258C439.596 351.474 439.771 351.65 439.987 351.65Z" fill="#3F3D56"/>
<path d="M433.269 351.65H435.845C436.061 351.65 436.237 351.474 436.237 351.258V350.026C436.237 349.809 436.061 349.634 435.845 349.634H433.269C433.053 349.634 432.878 349.809 432.878 350.026V351.258C432.878 351.474 433.053 351.65 433.269 351.65Z" fill="#3F3D56"/>
<path d="M426.551 351.65H429.127C429.343 351.65 429.519 351.474 429.519 351.258V350.026C429.519 349.809 429.343 349.634 429.127 349.634H426.551C426.335 349.634 426.16 349.809 426.16 350.026V351.258C426.16 351.474 426.335 351.65 426.551 351.65Z" fill="#3F3D56"/>
<path d="M419.833 351.65H422.409C422.625 351.65 422.801 351.474 422.801 351.258V350.026C422.801 349.809 422.625 349.634 422.409 349.634H419.833C419.617 349.634 419.442 349.809 419.442 350.026V351.258C419.442 351.474 419.617 351.65 419.833 351.65Z" fill="#3F3D56"/>
<path d="M413.115 351.65H415.691C415.907 351.65 416.083 351.474 416.083 351.258V350.026C416.083 349.809 415.907 349.634 415.691 349.634H413.115C412.899 349.634 412.724 349.809 412.724 350.026V351.258C412.724 351.474 412.899 351.65 413.115 351.65Z" fill="#3F3D56"/>
<path d="M406.397 351.65H408.973C409.189 351.65 409.365 351.474 409.365 351.258V350.026C409.365 349.809 409.189 349.634 408.973 349.634H406.397C406.181 349.634 406.006 349.809 406.006 350.026V351.258C406.006 351.474 406.181 351.65 406.397 351.65Z" fill="#3F3D56"/>
<path d="M399.679 351.65H402.255C402.471 351.65 402.646 351.474 402.646 351.258V350.026C402.646 349.809 402.471 349.634 402.255 349.634H399.679C399.463 349.634 399.287 349.809 399.287 350.026V351.258C399.287 351.474 399.463 351.65 399.679 351.65Z" fill="#3F3D56"/>
<path d="M444.69 355.681H470.779C470.995 355.681 471.17 355.506 471.17 355.29V354.057C471.17 353.841 470.995 353.665 470.779 353.665H444.69C444.473 353.665 444.298 353.841 444.298 354.057V355.29C444.298 355.506 444.473 355.681 444.69 355.681Z" fill="#3F3D56"/>
<path d="M417.049 287.738H414.769C414.077 287.738 413.517 288.299 413.517 288.99C413.517 289.682 414.077 290.242 414.769 290.242H417.049C417.741 290.242 418.301 289.682 418.301 288.99C418.301 288.299 417.741 287.738 417.049 287.738Z" fill="white"/>
<path d="M443.131 287.738H440.851C440.159 287.738 439.599 288.299 439.599 288.99C439.599 289.682 440.159 290.242 440.851 290.242H443.131C443.823 290.242 444.383 289.682 444.383 288.99C444.383 288.299 443.823 287.738 443.131 287.738Z" fill="white"/>
<path d="M450.521 287.738H448.241C447.549 287.738 446.989 288.299 446.989 288.99C446.989 289.682 447.549 290.242 448.241 290.242H450.521C451.213 290.242 451.773 289.682 451.773 288.99C451.773 288.299 451.213 287.738 450.521 287.738Z" fill="white"/>
<path d="M436.037 287.529H421.863C421.172 287.529 420.611 288.09 420.611 288.781C420.611 289.473 421.172 290.034 421.863 290.034H436.037C436.728 290.034 437.289 289.473 437.289 288.781C437.289 288.09 436.728 287.529 436.037 287.529Z" fill="white"/>
<path d="M470.813 287.529H456.639C455.948 287.529 455.387 288.09 455.387 288.781C455.387 289.473 455.948 290.034 456.639 290.034H470.813C471.505 290.034 472.065 289.473 472.065 288.781C472.065 288.09 471.505 287.529 470.813 287.529Z" fill="white"/>
<path d="M424.004 293.39H421.724C421.032 293.39 420.472 293.951 420.472 294.642C420.472 295.334 421.032 295.894 421.724 295.894H424.004C424.696 295.894 425.256 295.334 425.256 294.642C425.256 293.951 424.696 293.39 424.004 293.39Z" fill="white"/>
<path d="M450.087 293.39H447.806C447.115 293.39 446.554 293.951 446.554 294.642C446.554 295.334 447.115 295.894 447.806 295.894H450.087C450.778 295.894 451.339 295.334 451.339 294.642C451.339 293.951 450.778 293.39 450.087 293.39Z" fill="white"/>
<path d="M457.477 293.39H455.196C454.505 293.39 453.944 293.951 453.944 294.642C453.944 295.334 454.505 295.894 455.196 295.894H457.477C458.168 295.894 458.729 295.334 458.729 294.642C458.729 293.951 458.168 293.39 457.477 293.39Z" fill="white"/>
<path d="M442.992 293.181H428.818C428.127 293.181 427.566 293.742 427.566 294.433C427.566 295.125 428.127 295.686 428.818 295.686H442.992C443.684 295.686 444.244 295.125 444.244 294.433C444.244 293.742 443.684 293.181 442.992 293.181Z" fill="white"/>
<path d="M477.769 293.181H463.595C462.903 293.181 462.343 293.742 462.343 294.433C462.343 295.125 462.903 295.686 463.595 295.686H477.769C478.46 295.686 479.02 295.125 479.02 294.433C479.02 293.742 478.46 293.181 477.769 293.181Z" fill="white"/>
<path d="M430.96 299.042H428.679C427.988 299.042 427.427 299.603 427.427 300.294C427.427 300.986 427.988 301.546 428.679 301.546H430.96C431.651 301.546 432.212 300.986 432.212 300.294C432.212 299.603 431.651 299.042 430.96 299.042Z" fill="white"/>
<path d="M457.042 299.042H454.761C454.07 299.042 453.51 299.603 453.51 300.294C453.51 300.986 454.07 301.546 454.761 301.546H457.042C457.733 301.546 458.294 300.986 458.294 300.294C458.294 299.603 457.733 299.042 457.042 299.042Z" fill="white"/>
<path d="M464.432 299.042H462.151C461.46 299.042 460.899 299.603 460.899 300.294C460.899 300.986 461.46 301.546 462.151 301.546H464.432C465.123 301.546 465.684 300.986 465.684 300.294C465.684 299.603 465.123 299.042 464.432 299.042Z" fill="white"/>
<path d="M449.948 298.833H435.774C435.082 298.833 434.522 299.394 434.522 300.085C434.522 300.777 435.082 301.338 435.774 301.338H449.948C450.639 301.338 451.199 300.777 451.199 300.085C451.199 299.394 450.639 298.833 449.948 298.833Z" fill="white"/>
<path d="M484.724 298.833H470.55C469.858 298.833 469.298 299.394 469.298 300.085C469.298 300.777 469.858 301.338 470.55 301.338H484.724C485.415 301.338 485.976 300.777 485.976 300.085C485.976 299.394 485.415 298.833 484.724 298.833Z" fill="white"/>
<path d="M437.915 304.694H435.635C434.943 304.694 434.383 305.255 434.383 305.946C434.383 306.638 434.943 307.198 435.635 307.198H437.915C438.606 307.198 439.167 306.638 439.167 305.946C439.167 305.255 438.606 304.694 437.915 304.694Z" fill="white"/>
<path d="M463.997 304.694H461.717C461.025 304.694 460.465 305.255 460.465 305.946C460.465 306.638 461.025 307.198 461.717 307.198H463.997C464.689 307.198 465.249 306.638 465.249 305.946C465.249 305.255 464.689 304.694 463.997 304.694Z" fill="white"/>
<path d="M471.387 304.694H469.107C468.415 304.694 467.855 305.255 467.855 305.946C467.855 306.638 468.415 307.198 469.107 307.198H471.387C472.079 307.198 472.639 306.638 472.639 305.946C472.639 305.255 472.079 304.694 471.387 304.694Z" fill="white"/>
<path d="M456.903 304.485H442.729C442.037 304.485 441.477 305.046 441.477 305.737C441.477 306.429 442.037 306.99 442.729 306.99H456.903C457.594 306.99 458.155 306.429 458.155 305.737C458.155 305.046 457.594 304.485 456.903 304.485Z" fill="white"/>
<path d="M443.131 327.169H440.851C440.159 327.169 439.599 327.73 439.599 328.421C439.599 329.113 440.159 329.673 440.851 329.673H443.131C443.823 329.673 444.383 329.113 444.383 328.421C444.383 327.73 443.823 327.169 443.131 327.169Z" fill="white"/>
<path d="M450.521 327.169H448.241C447.549 327.169 446.989 327.73 446.989 328.421C446.989 329.113 447.549 329.673 448.241 329.673H450.521C451.213 329.673 451.773 329.113 451.773 328.421C451.773 327.73 451.213 327.169 450.521 327.169Z" fill="white"/>
<path d="M470.813 327.378H456.639C455.948 327.378 455.387 327.938 455.387 328.63C455.387 329.321 455.948 329.882 456.639 329.882H470.813C471.505 329.882 472.065 329.321 472.065 328.63C472.065 327.938 471.505 327.378 470.813 327.378Z" fill="white"/>
<path d="M417.049 327.169H414.769C414.077 327.169 413.517 327.73 413.517 328.421C413.517 329.113 414.077 329.673 414.769 329.673H417.049C417.741 329.673 418.301 329.113 418.301 328.421C418.301 327.73 417.741 327.169 417.049 327.169Z" fill="white"/>
<path d="M436.037 327.378H421.863C421.172 327.378 420.611 327.938 420.611 328.63C420.611 329.321 421.172 329.882 421.863 329.882H436.037C436.728 329.882 437.289 329.321 437.289 328.63C437.289 327.938 436.728 327.378 436.037 327.378Z" fill="white"/>
<path d="M424.004 321.517H421.724C421.032 321.517 420.472 322.077 420.472 322.769C420.472 323.461 421.032 324.021 421.724 324.021H424.004C424.696 324.021 425.256 323.461 425.256 322.769C425.256 322.077 424.696 321.517 424.004 321.517Z" fill="white"/>
<path d="M450.087 321.517H447.806C447.115 321.517 446.554 322.077 446.554 322.769C446.554 323.461 447.115 324.021 447.806 324.021H450.087C450.778 324.021 451.339 323.461 451.339 322.769C451.339 322.077 450.778 321.517 450.087 321.517Z" fill="white"/>
<path d="M457.477 321.517H455.196C454.505 321.517 453.944 322.077 453.944 322.769C453.944 323.461 454.505 324.021 455.196 324.021H457.477C458.168 324.021 458.729 323.461 458.729 322.769C458.729 322.077 458.168 321.517 457.477 321.517Z" fill="white"/>
<path d="M442.992 321.726H428.818C428.127 321.726 427.566 322.286 427.566 322.978C427.566 323.669 428.127 324.23 428.818 324.23H442.992C443.684 324.23 444.244 323.669 444.244 322.978C444.244 322.286 443.684 321.726 442.992 321.726Z" fill="white"/>
<path d="M430.96 315.865H428.679C427.988 315.865 427.427 316.425 427.427 317.117C427.427 317.809 427.988 318.369 428.679 318.369H430.96C431.651 318.369 432.212 317.809 432.212 317.117C432.212 316.425 431.651 315.865 430.96 315.865Z" fill="white"/>
<path d="M457.042 315.865H454.761C454.07 315.865 453.51 316.425 453.51 317.117C453.51 317.809 454.07 318.369 454.761 318.369H457.042C457.733 318.369 458.294 317.809 458.294 317.117C458.294 316.425 457.733 315.865 457.042 315.865Z" fill="white"/>
<path d="M464.432 315.865H462.151C461.46 315.865 460.899 316.425 460.899 317.117C460.899 317.809 461.46 318.369 462.151 318.369H464.432C465.123 318.369 465.684 317.809 465.684 317.117C465.684 316.425 465.123 315.865 464.432 315.865Z" fill="white"/>
<path d="M449.948 316.074H435.774C435.082 316.074 434.522 316.634 434.522 317.326C434.522 318.017 435.082 318.578 435.774 318.578H449.948C450.639 318.578 451.199 318.017 451.199 317.326C451.199 316.634 450.639 316.074 449.948 316.074Z" fill="white"/>
<path d="M437.915 310.213H435.635C434.943 310.213 434.383 310.773 434.383 311.465C434.383 312.157 434.943 312.717 435.635 312.717H437.915C438.606 312.717 439.167 312.157 439.167 311.465C439.167 310.773 438.606 310.213 437.915 310.213Z" fill="white"/>
<path d="M463.997 310.213H461.717C461.025 310.213 460.465 310.773 460.465 311.465C460.465 312.157 461.025 312.717 461.717 312.717H463.997C464.689 312.717 465.249 312.157 465.249 311.465C465.249 310.773 464.689 310.213 463.997 310.213Z" fill="white"/>
<path d="M471.387 310.213H469.107C468.415 310.213 467.855 310.773 467.855 311.465C467.855 312.157 468.415 312.717 469.107 312.717H471.387C472.079 312.717 472.639 312.157 472.639 311.465C472.639 310.773 472.079 310.213 471.387 310.213Z" fill="white"/>
<path d="M456.903 310.422H442.729C442.037 310.422 441.477 310.982 441.477 311.674C441.477 312.365 442.037 312.926 442.729 312.926H456.903C457.594 312.926 458.155 312.365 458.155 311.674C458.155 310.982 457.594 310.422 456.903 310.422Z" fill="white"/>
<path d="M404.925 393.408L394.219 376.483L427.823 349.691L441.693 334.322C443.495 332.326 445.789 330.837 448.347 330.005C450.904 329.173 453.635 329.027 456.267 329.581C458.899 330.136 461.339 331.371 463.343 333.164C465.348 334.957 466.847 337.245 467.691 339.799C468.941 343.584 468.672 347.706 466.941 351.296C465.21 354.887 462.152 357.664 458.412 359.042L436.479 367.123L404.925 393.408Z" fill="#FFB6B6"/>
<path d="M153.728 270.689V352.951H211.349V270.689C211.35 270.097 211.161 269.521 210.811 269.044C210.46 268.568 209.966 268.216 209.4 268.042C209.134 267.954 208.855 267.91 208.574 267.913H156.511C156.146 267.913 155.784 267.984 155.447 268.123C155.11 268.262 154.803 268.466 154.544 268.724C154.286 268.982 154.081 269.288 153.941 269.625C153.801 269.962 153.728 270.324 153.728 270.689ZM176.215 298.954C176.23 297.332 176.885 295.782 178.037 294.641C179.189 293.499 180.745 292.859 182.366 292.859C183.988 292.859 185.544 293.499 186.696 294.641C187.848 295.782 188.502 297.332 188.517 298.954V308.499C188.509 310.125 187.857 311.682 186.705 312.829C185.552 313.976 183.992 314.62 182.366 314.62C180.74 314.62 179.18 313.976 178.028 312.829C176.875 311.682 176.223 310.125 176.215 308.499V298.954Z" fill="#2F2E41"/>
<path d="M153.552 350.32V358.252C153.553 358.663 153.716 359.057 154.006 359.349C154.296 359.64 154.689 359.805 155.1 359.808H209.978C210.389 359.806 210.783 359.642 211.073 359.35C211.363 359.058 211.526 358.664 211.526 358.252V350.32H153.552Z" fill="#3F3D56"/>
<path d="M63.0824 146.75V296.949C63.0839 298.863 63.8448 300.698 65.1981 302.052C66.5513 303.405 68.3863 304.166 70.3001 304.168H292.845C294.758 304.166 296.593 303.405 297.947 302.052C299.3 300.698 300.061 298.863 300.062 296.949V146.75C300.058 144.838 299.296 143.005 297.943 141.654C296.59 140.302 294.757 139.542 292.845 139.54H70.3001C68.388 139.542 66.5547 140.302 65.2019 141.654C63.8491 143.005 63.087 144.838 63.0824 146.75Z" fill="#3F3D56"/>
<path d="M68.3031 148.619V295.096C68.3049 296.119 68.7118 297.099 69.4348 297.822C70.1579 298.545 71.138 298.952 72.1605 298.954H290.992C292.015 298.952 292.995 298.545 293.718 297.822C294.441 297.099 294.848 296.119 294.849 295.096V148.619C294.849 147.595 294.443 146.613 293.72 145.888C292.997 145.164 292.016 144.755 290.992 144.753H72.1605C71.1368 144.755 70.1557 145.164 69.4325 145.888C68.7094 146.613 68.3032 147.595 68.3031 148.619Z" fill="white"/>
<path d="M108.914 359.271C109.137 359.55 109.42 359.776 109.743 359.93C110.065 360.084 110.418 360.163 110.775 360.161H240.966C241.322 360.161 241.673 360.081 241.994 359.928C242.316 359.774 242.599 359.551 242.823 359.275C243.047 358.998 243.207 358.675 243.291 358.329C243.375 357.983 243.38 357.622 243.307 357.274L241.286 347.673C241.203 347.281 241.022 346.917 240.762 346.613C240.501 346.309 240.169 346.075 239.795 345.932C239.524 345.826 239.236 345.772 238.945 345.772H112.788C112.497 345.772 112.209 345.826 111.938 345.932C111.564 346.075 111.231 346.309 110.971 346.613C110.71 346.917 110.53 347.281 110.446 347.673L108.425 357.274C108.353 357.622 108.36 357.982 108.445 358.328C108.529 358.673 108.69 358.995 108.914 359.271Z" fill="#2F2E41"/>
<path d="M283.89 164.931H79.1305C78.9177 164.926 78.7151 164.838 78.5663 164.686C78.4174 164.534 78.3341 164.33 78.3341 164.117C78.3341 163.904 78.4174 163.699 78.5663 163.547C78.7151 163.395 78.9177 163.307 79.1305 163.302H283.89C284.103 163.307 284.306 163.395 284.454 163.547C284.603 163.699 284.687 163.904 284.687 164.117C284.687 164.33 284.603 164.534 284.454 164.686C284.306 164.838 284.103 164.926 283.89 164.931Z" fill="#3F3D56"/>
<path d="M93.0688 159.144C95.7043 159.144 97.8408 156.96 97.8408 154.265C97.8408 151.57 95.7043 149.386 93.0688 149.386C90.4333 149.386 88.2968 151.57 88.2968 154.265C88.2968 156.96 90.4333 159.144 93.0688 159.144Z" fill="#3F3D56"/>
<path d="M109.554 159.144C112.19 159.144 114.326 156.96 114.326 154.265C114.326 151.57 112.19 149.386 109.554 149.386C106.918 149.386 104.782 151.57 104.782 154.265C104.782 156.96 106.918 159.144 109.554 159.144Z" fill="#3F3D56"/>
<path d="M126.039 159.144C128.675 159.144 130.811 156.96 130.811 154.265C130.811 151.57 128.675 149.386 126.039 149.386C123.404 149.386 121.267 151.57 121.267 154.265C121.267 156.96 123.404 159.144 126.039 159.144Z" fill="#3F3D56"/>
<path d="M273.963 150.592H262.255C262.023 150.598 261.803 150.694 261.641 150.859C261.48 151.025 261.389 151.247 261.389 151.479C261.389 151.71 261.48 151.933 261.641 152.098C261.803 152.264 262.023 152.36 262.255 152.365H273.963C274.196 152.362 274.419 152.267 274.582 152.101C274.746 151.935 274.837 151.712 274.837 151.479C274.837 151.246 274.746 151.022 274.582 150.856C274.419 150.69 274.196 150.596 273.963 150.592Z" fill="#3F3D56"/>
<path d="M273.963 153.921H262.255C262.023 153.926 261.803 154.022 261.641 154.187C261.479 154.353 261.388 154.576 261.388 154.807C261.388 155.039 261.479 155.262 261.641 155.427C261.803 155.593 262.023 155.689 262.255 155.694H273.963C274.197 155.691 274.419 155.596 274.583 155.43C274.747 155.264 274.839 155.041 274.839 154.807C274.839 154.574 274.747 154.35 274.583 154.184C274.419 154.018 274.197 153.924 273.963 153.921Z" fill="#3F3D56"/>
<path d="M273.963 157.25H262.255C262.023 157.255 261.803 157.351 261.641 157.516C261.48 157.682 261.389 157.904 261.389 158.136C261.389 158.367 261.48 158.59 261.641 158.755C261.803 158.921 262.023 159.017 262.255 159.022H273.963C274.196 159.019 274.419 158.924 274.582 158.758C274.746 158.592 274.837 158.369 274.837 158.136C274.837 157.903 274.746 157.679 274.582 157.514C274.419 157.348 274.196 157.253 273.963 157.25Z" fill="#3F3D56"/>
<path d="M556.238 353.801C556.591 354.83 557.261 355.721 558.152 356.345C559.043 356.969 560.109 357.295 561.196 357.275L582.442 356.728C583.537 356.707 584.596 356.331 585.461 355.658C586.326 354.985 586.949 354.05 587.238 352.993L590.245 320.839C591.311 321.323 592.473 321.561 593.643 321.538C594.66 321.512 595.663 321.287 596.593 320.874C597.523 320.461 598.362 319.869 599.063 319.131C599.764 318.394 600.314 317.526 600.679 316.576C601.045 315.626 601.22 314.614 601.194 313.597C601.169 312.579 600.943 311.577 600.53 310.647C600.118 309.717 599.526 308.877 598.788 308.176C598.051 307.475 597.183 306.925 596.233 306.56C595.284 306.194 594.272 306.019 593.254 306.044C592.786 306.043 592.32 306.091 591.862 306.189C591.364 305.651 590.759 305.222 590.086 304.932C589.413 304.641 588.686 304.495 587.953 304.502L555.273 305.346C555.002 305.356 554.732 305.39 554.467 305.447C553.75 305.58 553.07 305.866 552.473 306.284C551.876 306.703 551.376 307.244 551.005 307.872C550.635 308.5 550.404 309.2 550.327 309.925C550.25 310.65 550.329 311.384 550.559 312.075L556.238 353.801ZM590.861 318.656L593.001 310.994C593.244 310.109 593.249 309.175 593.017 308.287C593.121 308.287 593.212 308.238 593.316 308.238C594.783 308.207 596.202 308.76 597.262 309.775C598.322 310.789 598.937 312.183 598.971 313.65C599.005 315.117 598.457 316.537 597.445 317.6C596.434 318.663 595.042 319.282 593.576 319.32C592.627 319.35 591.689 319.12 590.861 318.656Z" fill="#2F2E41"/>
<path d="M554.467 305.446C555.163 309.428 562.991 312.227 572.403 311.741C581.059 311.342 588.136 308.302 589.432 304.7C588.953 304.558 588.454 304.491 587.953 304.502L555.273 305.346C555.002 305.356 554.732 305.39 554.467 305.446Z" fill="#3F3D56"/>
<path d="M574.128 336.133C574.171 336.122 574.212 336.104 574.249 336.079L578.863 333.059C578.919 333.023 578.965 332.973 578.997 332.914C579.028 332.856 579.045 332.79 579.045 332.724C579.045 332.657 579.028 332.592 578.997 332.533C578.965 332.474 578.919 332.425 578.864 332.388L574.068 329.247C574.024 329.218 573.975 329.198 573.923 329.187C573.871 329.177 573.818 329.178 573.766 329.188C573.714 329.199 573.665 329.22 573.622 329.25C573.578 329.279 573.541 329.317 573.512 329.361C573.483 329.405 573.463 329.455 573.453 329.507C573.443 329.559 573.444 329.612 573.455 329.664C573.465 329.715 573.486 329.764 573.516 329.808C573.546 329.851 573.584 329.888 573.629 329.917L577.912 332.723L573.811 335.408C573.731 335.46 573.673 335.539 573.646 335.63C573.619 335.721 573.625 335.818 573.663 335.905C573.701 335.992 573.769 336.063 573.854 336.104C573.939 336.146 574.036 336.156 574.128 336.133Z" fill="#8B5CF6"/>
<path d="M566.841 336.469C566.919 336.449 566.988 336.407 567.042 336.347C567.095 336.288 567.129 336.214 567.14 336.135C567.151 336.055 567.138 335.975 567.103 335.903C567.067 335.831 567.012 335.772 566.942 335.732L562.689 333.294L566.8 330.24C566.842 330.208 566.878 330.169 566.905 330.124C566.932 330.079 566.95 330.029 566.957 329.977C566.965 329.925 566.962 329.871 566.95 329.82C566.937 329.769 566.914 329.721 566.883 329.679C566.851 329.637 566.812 329.601 566.767 329.574C566.721 329.547 566.671 329.529 566.619 329.522C566.567 329.514 566.514 329.517 566.463 329.529C566.412 329.542 566.364 329.565 566.322 329.596L561.72 333.015C561.666 333.055 561.624 333.107 561.595 333.168C561.567 333.228 561.555 333.294 561.558 333.361C561.562 333.427 561.583 333.492 561.618 333.548C561.653 333.605 561.702 333.652 561.759 333.685L566.543 336.428C566.633 336.48 566.74 336.494 566.841 336.469Z" fill="#8B5CF6"/>
<path d="M573.67 338.78C573.708 338.77 573.745 338.754 573.779 338.733C573.824 338.706 573.864 338.67 573.895 338.627C573.926 338.585 573.948 338.537 573.961 338.485C573.973 338.434 573.976 338.381 573.967 338.329C573.959 338.277 573.941 338.227 573.914 338.182L567.373 327.427C567.318 327.337 567.229 327.272 567.125 327.247C567.022 327.222 566.913 327.239 566.822 327.294C566.732 327.349 566.666 327.438 566.641 327.542C566.616 327.645 566.633 327.754 566.688 327.845L573.228 338.599C573.273 338.673 573.34 338.73 573.419 338.762C573.499 338.794 573.586 338.801 573.67 338.78Z" fill="#8B5CF6"/>
<path d="M205.976 209.206H170.536C169.09 209.206 167.918 210.378 167.918 211.824V215.287C167.918 216.733 169.09 217.905 170.536 217.905H205.976C207.421 217.905 208.593 216.733 208.593 215.287V211.824C208.593 210.378 207.421 209.206 205.976 209.206Z" fill="#8B5CF6"/>
<path d="M226.633 226.604H149.879C148.433 226.604 147.261 227.776 147.261 229.222V232.685C147.261 234.131 148.433 235.303 149.879 235.303H226.633C228.079 235.303 229.251 234.131 229.251 232.685V229.222C229.251 227.776 228.079 226.604 226.633 226.604Z" fill="#E6E6E6"/>
<path d="M226.633 244.003H149.879C148.433 244.003 147.261 245.175 147.261 246.621V250.084C147.261 251.53 148.433 252.702 149.879 252.702H226.633C228.079 252.702 229.251 251.53 229.251 250.084V246.621C229.251 245.175 228.079 244.003 226.633 244.003Z" fill="#E6E6E6"/>
<path d="M233.139 302.263L233.313 302.812L233.322 302.83L238.555 318.742L244.575 337.078L255.901 371.537L256.011 376.89V376.908L256.852 419.968L254.519 425.805L257.145 435.376C257.145 435.376 255.937 420.909 249.46 429.217C245.792 433.938 241.501 438.77 237.979 443.299C243.111 445.376 248.326 447.255 253.623 448.935C254.767 449.301 255.919 449.649 257.072 449.997C257.319 450.07 257.566 450.143 257.813 450.216C275.372 455.41 293.524 458.328 311.826 458.899C312.777 458.927 313.71 458.945 314.616 458.963C314.936 458.973 315.247 458.982 315.558 458.982C316.583 458.991 317.599 459 318.623 459C320.691 459 322.749 458.97 324.798 458.909C339.966 458.481 355.045 456.441 369.782 452.824C369.681 446.739 369.407 439.63 369.013 432.035C368.83 428.311 364.723 424.276 364.476 420.378C364.302 417.45 367.989 414.696 367.796 411.722C366.552 393.413 364.997 400.442 363.844 387.476C363.725 386.204 363.616 384.987 363.515 383.825C362.774 375.499 362.262 370.293 362.262 370.293L367.184 339.265L374.914 290.551L374.319 289.572L373.652 289.243L332.877 269.058L330.663 263.385C330.018 261.75 328.898 260.346 327.449 259.353C326 258.36 324.286 257.824 322.53 257.812L295.67 257.703C294.276 257.696 292.9 258.023 291.658 258.654C290.415 259.286 289.341 260.205 288.525 261.335L281.251 271.409L233.139 302.263Z" fill="#3F3D56"/>
<path d="M262.095 363.869L256.011 376.89L251.857 385.783L244.712 423.198L241.135 426.995L238.071 413.552L205.994 420.676C204.942 414.829 205.712 420.873 205.063 414.459C205.246 414.276 205.438 414.093 205.63 413.91C206.142 413.434 206.572 412.986 206.563 412.556C206.197 390.432 207.295 352.78 216.462 329.969C217.897 326.244 219.79 322.713 222.097 319.456C222.28 319.208 222.454 318.961 222.628 318.714C226.854 312.794 229.526 306.966 233.313 302.821V302.812C233.337 302.793 233.358 302.771 233.377 302.748C233.391 302.741 233.403 302.732 233.414 302.72L259.432 288.922L260.548 320.288L261.344 342.834L262.095 363.869Z" fill="#3F3D56"/>
<path d="M355.912 367.568L363.511 383.83L366.164 389.493L373.307 426.904L376.872 430.692L379.944 417.253L381.387 416.957L407.418 411.565L415.005 435.664C416.715 432.815 417.388 429.462 416.912 426.173C416.435 422.884 414.838 419.86 412.389 417.613C411.871 417.144 411.44 416.688 411.452 416.256C411.884 390.234 410.292 342.718 395.92 323.161C391.355 316.954 388.617 310.773 384.632 306.454C384.619 306.442 384.619 306.43 384.607 306.43L374.91 290.55L374.318 289.575L373.652 289.242L355.912 367.568Z" fill="#3F3D56"/>
<path d="M309.875 250.057C329.611 250.057 345.609 234.056 345.609 214.318C345.609 194.579 329.611 178.578 309.875 178.578C290.14 178.578 274.141 194.579 274.141 214.318C274.141 234.056 290.14 250.057 309.875 250.057Z" fill="#FFB6B6"/>
<path d="M358.174 189.354C357.897 189.058 357.563 188.821 357.193 188.657C356.822 188.493 356.422 188.405 356.017 188.399L356.554 186.908C356.73 186.438 356.777 185.93 356.691 185.435C356.606 184.941 356.39 184.478 356.067 184.095C355.744 183.711 355.325 183.421 354.852 183.252C354.38 183.084 353.871 183.045 353.378 183.138L351.422 183.515L351.606 182.207C351.677 181.72 351.62 181.223 351.44 180.765C351.261 180.307 350.965 179.904 350.582 179.595C350.199 179.285 349.743 179.081 349.257 179.002C348.772 178.923 348.274 178.972 347.813 179.143C347.393 179.308 346.942 179.378 346.493 179.346C346.043 179.314 345.606 179.182 345.214 178.959C344.821 178.743 344.479 178.444 344.213 178.082C343.947 177.721 343.764 177.305 343.675 176.865L342.993 173.577L342.921 173.4C339.601 167.866 333.217 163.84 325.406 162.364C318.453 161.04 311.324 161.714 304.451 162.348C301.724 162.604 298.645 162.893 296.078 164.465C293.897 165.813 292.052 168.508 292.429 171.227C285.653 169.149 278.387 173.296 274.786 178.526C270.52 184.75 269.822 192.546 269.71 198.642C269.405 213.064 272.38 224.862 278.531 233.717C278.98 234.359 279.093 235.698 279.983 236.148L279.798 235.851C280.793 236.348 281.803 237.15 281.426 238.008C280.344 240.479 287.537 245.941 292.606 247.746C301.852 251.042 314.146 250.762 322.792 249.575L323.096 247.529C326.216 247.104 328.413 246.294 329.031 245.027C330.122 244.096 331.052 243.262 331.862 242.492L331.87 242.484C331.886 242.468 331.918 242.444 331.934 242.428C335.84 238.682 336.746 236.549 337.155 233.3C337.548 230.116 336.85 226.884 336.136 223.972C351.165 226.298 330.218 207.962 344.22 204.417C344.381 204.368 344.544 204.327 344.709 204.297C345.118 204.201 345.527 204.104 345.92 203.992C347.814 203.478 349.628 202.703 351.309 201.69C355.223 199.308 356.514 196.148 358.535 192.586C358.827 192.079 358.949 191.492 358.884 190.911C358.819 190.33 358.57 189.784 358.174 189.354Z" fill="#2F2E41"/>
<path d="M436.261 370.112C436.253 371.516 436.237 373.481 436.173 375.911C436.165 376.248 436.157 376.593 436.149 376.946C436.045 381.413 435.94 385.159 435.772 389.322C435.764 389.611 435.756 389.891 435.74 390.18C435.515 395.987 435.163 402.749 434.553 413.457C433.422 433.236 431.449 416.176 429.469 423.114C429.372 423.459 429.268 423.868 429.172 424.349C428.872 426.095 428.366 427.799 427.664 429.426C426.614 430.052 425.531 430.653 424.464 431.255C421.425 432.947 418.337 434.576 415.226 436.124C413.477 436.99 411.721 437.84 409.957 438.658C409.676 438.787 409.404 438.915 409.131 439.035C400.096 443.215 390.785 446.769 381.263 449.671C379.402 450.232 377.55 450.778 375.673 451.283C373.716 451.829 371.759 452.342 369.779 452.823C355.043 456.441 339.964 458.482 324.797 458.911C322.752 458.975 320.691 458.999 318.621 458.999C317.595 458.999 316.584 458.991 315.558 458.983C315.245 458.983 314.932 458.975 314.62 458.967C313.713 458.943 312.775 458.927 311.829 458.903C293.527 458.332 275.375 455.413 257.817 450.216L257.071 450C255.916 449.647 254.769 449.302 253.622 448.933C248.329 447.257 243.114 445.38 237.976 443.302C234.054 441.722 230.178 440.027 226.348 438.217C226.313 438.208 226.28 438.191 226.251 438.169C225.449 437.8 224.639 437.415 223.838 437.022C223.733 436.966 223.621 436.91 223.509 436.854C220.517 435.394 217.558 433.865 214.631 432.266C212.169 426.611 208.704 425.528 206.555 420.555C205.93 419.078 205.478 417.533 205.208 415.951C205.208 415.935 205.2 415.919 205.2 415.895C205.424 418.879 204.246 410.601 205.192 415.863C205.184 415.767 205.176 415.662 205.168 415.542C205.144 415.253 205.112 414.901 205.064 414.459C202.313 387.598 202.489 356.878 201.294 331.564C201.214 329.928 201.131 328.361 201.046 326.864C201.022 326.366 200.99 325.877 200.958 325.396C201.014 325.251 201.078 325.099 201.15 324.955C201.165 324.913 201.184 324.873 201.206 324.834C201.23 324.785 201.257 324.736 201.286 324.69C201.302 324.666 201.326 324.634 201.342 324.61C201.354 324.582 201.368 324.555 201.383 324.529C201.455 324.417 201.535 324.297 201.623 324.185C201.663 324.136 201.695 324.096 201.735 324.056C201.763 324.015 201.795 323.978 201.832 323.944C201.856 323.905 201.886 323.87 201.92 323.84C201.952 323.808 201.984 323.768 202.024 323.727C202.041 323.702 202.063 323.68 202.088 323.663C202.152 323.59 202.221 323.523 202.297 323.463C202.583 323.199 202.889 322.958 203.211 322.741C203.323 322.669 203.444 322.596 203.556 322.516C204.364 322.033 205.215 321.625 206.098 321.297C206.403 321.185 206.708 321.081 207.036 320.968C207.157 320.936 207.269 320.896 207.389 320.856C207.566 320.8 207.742 320.744 207.927 320.704C208.841 320.431 209.827 320.198 210.894 319.982C211.022 319.958 211.158 319.934 211.295 319.901C211.487 319.861 211.688 319.829 211.888 319.797C212.161 319.749 212.442 319.701 212.722 319.653C215.104 319.276 217.807 318.995 220.79 318.811C221.071 318.795 221.351 318.779 221.632 318.763C221.961 318.746 222.29 318.73 222.627 318.714C222.907 318.698 223.196 318.69 223.485 318.682C223.765 318.666 224.054 318.658 224.351 318.65C225.161 318.626 225.995 318.602 226.845 318.586C229.267 318.538 231.817 318.554 234.496 318.61C235.739 318.642 237.006 318.674 238.305 318.73C238.393 318.73 238.473 318.738 238.554 318.738C239.684 318.779 240.823 318.827 241.994 318.891C242.812 318.931 243.638 318.971 244.464 319.019C245.242 319.067 246.028 319.115 246.822 319.172C247.439 319.204 248.057 319.252 248.682 319.292C249.212 319.332 249.741 319.372 250.27 319.404L250.992 319.452C251.385 319.484 251.778 319.508 252.179 319.549C253.061 319.621 253.943 319.693 254.841 319.765C255.732 319.845 256.638 319.926 257.544 320.006C258.45 320.086 259.364 320.174 260.279 320.262C260.375 320.27 260.463 320.278 260.551 320.286C261.385 320.375 262.219 320.455 263.061 320.543C263.254 320.559 263.454 320.575 263.647 320.599C264.45 320.68 265.268 320.774 266.078 320.861C266.327 320.887 266.574 320.913 266.824 320.941C267.458 321.01 268.084 321.07 268.723 321.145C269.565 321.241 270.423 321.329 271.257 321.441C271.907 321.514 272.557 321.586 273.206 321.666C274.225 321.786 275.259 321.915 276.294 322.051C276.687 322.099 277.08 322.147 277.473 322.203C280.424 322.572 283.407 322.981 286.439 323.407C291.034 324.056 295.701 324.762 300.401 325.524C305.108 326.286 309.843 327.091 314.604 327.938C315.806 328.155 317.009 328.371 318.22 328.596C318.766 328.7 319.311 328.805 319.856 328.909C320.787 329.077 321.717 329.254 322.647 329.43C323.577 329.607 324.508 329.783 325.438 329.968C326.545 330.184 327.659 330.401 328.766 330.617C336.056 332.061 343.306 333.601 350.379 335.213C351.542 335.478 352.705 335.751 353.86 336.015C356.169 336.553 358.457 337.098 360.724 337.652C361.35 337.796 361.967 337.948 362.585 338.101C364.125 338.486 365.664 338.871 367.18 339.264L367.445 339.336C368.56 339.609 369.65 339.889 370.741 340.178C373.315 340.852 375.847 341.534 378.335 342.223C379.987 342.681 381.621 343.143 383.235 343.611C385.649 344.309 388.015 345.015 390.317 345.729C390.886 345.905 391.456 346.081 392.017 346.25C393.701 346.771 395.361 347.301 396.973 347.83C398.256 348.247 399.507 348.672 400.742 349.097C401.977 349.522 403.188 349.948 404.375 350.373C405.137 350.645 405.891 350.934 406.645 351.207C407.727 351.608 408.794 352.009 409.837 352.41C410.157 352.53 410.47 352.659 410.783 352.779C410.983 352.867 411.176 352.939 411.368 353.02C411.745 353.172 412.13 353.316 412.499 353.469C412.876 353.613 413.245 353.765 413.614 353.926C413.975 354.07 414.344 354.223 414.696 354.375C415.057 354.519 415.41 354.672 415.763 354.832C416.06 354.953 416.348 355.081 416.629 355.209C417.199 355.458 417.768 355.707 418.321 355.963C418.594 356.092 418.867 356.212 419.139 356.34L419.765 356.629C419.853 356.677 419.941 356.717 420.029 356.757C420.23 356.854 420.438 356.958 420.639 357.054C421.104 357.271 421.561 357.503 422.01 357.72C422.612 358.025 423.197 358.329 423.759 358.626C424.328 358.931 424.881 359.236 425.411 359.532C425.499 359.581 425.579 359.629 425.667 359.677C425.788 359.741 425.908 359.813 426.028 359.877C426.437 360.11 426.83 360.351 427.223 360.583C427.993 361.056 428.723 361.522 429.404 361.987C429.557 362.091 429.701 362.195 429.853 362.292C430.359 362.653 430.84 363.005 431.289 363.366C431.289 363.374 431.289 363.374 431.297 363.374C431.449 363.487 431.594 363.607 431.738 363.719C431.858 363.832 431.987 363.928 432.107 364.04C432.524 364.401 432.909 364.746 433.262 365.099C433.38 365.208 433.493 365.323 433.599 365.444C433.645 365.483 433.688 365.525 433.727 365.572C433.887 365.733 434.032 365.893 434.168 366.053C434.189 366.075 434.208 366.1 434.224 366.126C434.417 366.35 434.593 366.575 434.762 366.799C434.842 366.912 434.93 367.024 435.002 367.136C435.098 367.273 435.195 367.417 435.275 367.553C435.347 367.666 435.411 367.786 435.475 367.898C435.645 368.187 435.79 368.491 435.908 368.805C435.998 369.018 436.071 369.237 436.125 369.462C436.186 369.675 436.231 369.893 436.261 370.112Z" fill="#2F2E41"/>
<path opacity="0.2" d="M436.261 370.112C436.253 371.516 436.237 373.481 436.173 375.911C436.165 376.248 436.149 376.593 436.141 376.946C436.061 380.355 435.941 384.566 435.772 389.322C435.764 389.611 435.756 389.891 435.74 390.18C435.515 395.987 435.163 402.749 434.553 413.457C433.422 433.236 431.449 416.176 429.469 423.114C423.967 419.729 417.936 416.184 411.489 412.542C410.326 411.885 409.152 411.224 407.968 410.561C395.072 403.367 380.669 395.827 365.632 388.36C365.039 388.063 364.438 387.766 363.844 387.477C329.4 370.449 291.804 353.886 261.345 342.833C255.467 340.7 249.853 338.775 244.576 337.082C233.461 333.529 223.854 331.042 216.459 329.968C208.761 328.845 203.444 329.246 201.294 331.564C201.214 329.927 201.131 328.361 201.046 326.864C201.014 326.366 200.982 325.877 200.949 325.396C200.999 325.264 201.063 325.138 201.126 325.011C201.134 324.992 201.141 324.973 201.15 324.955C201.165 324.913 201.184 324.873 201.206 324.834C201.23 324.784 201.257 324.736 201.286 324.69C201.312 324.633 201.345 324.579 201.383 324.529C201.455 324.417 201.535 324.297 201.623 324.185C201.688 324.1 201.758 324.02 201.832 323.944C201.856 323.905 201.886 323.87 201.92 323.84C201.952 323.808 201.984 323.767 202.024 323.727C202.041 323.702 202.063 323.68 202.088 323.663C202.152 323.59 202.221 323.523 202.297 323.463C202.583 323.199 202.889 322.958 203.211 322.741C203.323 322.669 203.444 322.596 203.556 322.516C204.364 322.033 205.215 321.625 206.098 321.297C206.403 321.185 206.708 321.08 207.036 320.968C207.157 320.936 207.269 320.896 207.389 320.856C207.566 320.8 207.742 320.744 207.927 320.704C208.841 320.431 209.827 320.198 210.894 319.982C211.215 319.917 211.551 319.853 211.888 319.797C212.161 319.749 212.442 319.701 212.722 319.653C215.104 319.276 217.807 318.995 220.79 318.811C221.071 318.795 221.351 318.778 221.632 318.762C221.961 318.746 222.29 318.73 222.627 318.714C222.907 318.698 223.196 318.69 223.485 318.682C223.765 318.666 224.054 318.658 224.351 318.65C225.161 318.626 225.995 318.602 226.845 318.586C229.267 318.546 231.817 318.562 234.496 318.618C235.739 318.642 237.006 318.682 238.305 318.738C238.385 318.738 238.473 318.746 238.553 318.746C239.684 318.779 240.831 318.835 241.994 318.891C242.812 318.931 243.638 318.971 244.464 319.019C245.242 319.067 246.028 319.115 246.822 319.172C247.439 319.204 248.057 319.252 248.682 319.292C249.212 319.332 249.741 319.372 250.27 319.404C250.904 319.452 251.537 319.5 252.179 319.549C253.061 319.621 253.943 319.693 254.841 319.765C255.731 319.845 256.638 319.925 257.544 320.006C258.45 320.086 259.364 320.174 260.279 320.262C260.375 320.27 260.463 320.278 260.551 320.286C261.385 320.375 262.219 320.455 263.061 320.543C267.729 321.016 272.533 321.57 277.473 322.203C280.424 322.58 283.413 322.984 286.439 323.415C291.034 324.064 295.701 324.77 300.401 325.524C305.108 326.286 309.843 327.091 314.604 327.938C315.806 328.155 317.009 328.371 318.22 328.596C319.696 328.869 321.172 329.147 322.647 329.43C323.578 329.607 324.508 329.783 325.438 329.968C326.545 330.184 327.66 330.401 328.766 330.617C336.056 332.061 343.306 333.601 350.379 335.213C351.542 335.478 352.705 335.751 353.86 336.015C356.169 336.553 358.458 337.098 360.724 337.652C361.35 337.804 361.967 337.956 362.585 338.109C364.133 338.494 365.664 338.879 367.18 339.264V339.272C367.268 339.288 367.357 339.312 367.445 339.336C368.552 339.617 369.65 339.897 370.741 340.186C373.315 340.86 375.847 341.539 378.335 342.223C379.988 342.689 381.624 343.146 383.235 343.611C385.649 344.317 388.015 345.023 390.317 345.729C390.886 345.905 391.456 346.082 392.017 346.25C393.701 346.779 395.353 347.306 396.973 347.83C398.256 348.247 399.507 348.672 400.742 349.097C401.977 349.522 403.188 349.948 404.375 350.373C405.145 350.645 405.899 350.926 406.645 351.199C407.735 351.6 408.794 352.001 409.837 352.41C410.157 352.53 410.47 352.659 410.783 352.779C411.368 353.004 411.938 353.236 412.499 353.469C412.876 353.613 413.245 353.765 413.614 353.926C413.975 354.07 414.344 354.223 414.696 354.375C415.057 354.519 415.41 354.672 415.763 354.832C416.06 354.953 416.349 355.081 416.629 355.209C417.199 355.458 417.768 355.707 418.321 355.963C418.594 356.092 418.867 356.212 419.139 356.34L419.765 356.629C419.853 356.677 419.941 356.717 420.03 356.757C420.711 357.078 421.369 357.399 422.01 357.72C422.612 358.025 423.197 358.329 423.759 358.626C424.424 358.979 425.058 359.324 425.667 359.677C425.788 359.741 425.908 359.813 426.028 359.877C426.437 360.11 426.83 360.351 427.223 360.583C427.993 361.056 428.723 361.522 429.404 361.987C430.078 362.452 430.704 362.909 431.289 363.366C431.289 363.374 431.289 363.374 431.297 363.374C431.578 363.599 431.85 363.824 432.107 364.04C432.524 364.401 432.909 364.746 433.262 365.099C433.38 365.208 433.493 365.323 433.599 365.444C433.645 365.482 433.688 365.525 433.727 365.572C433.895 365.757 434.064 365.941 434.224 366.126C434.417 366.35 434.593 366.575 434.762 366.799C434.842 366.912 434.93 367.024 435.002 367.136C435.098 367.273 435.195 367.417 435.275 367.553C435.347 367.666 435.411 367.786 435.475 367.898C435.646 368.187 435.79 368.491 435.908 368.805C435.996 369.018 436.069 369.238 436.125 369.462C436.186 369.675 436.231 369.893 436.261 370.112Z" fill="black"/>
</g>
<defs>
<clipPath id="clip0_31_118">
<rect width="631" height="459" fill="white"/>
</clipPath>
</defs>
</svg>
