<svg width="53" height="50" viewBox="0 0 53 50" fill="none" xmlns="http://www.w3.org/2000/svg">
<rect x="1" width="50" height="50" fill="#2F2F2F"/>
<path d="M50.7969 28.4332L40.7969 32.8366V29.9602L47.6435 27.2116L47.5511 27.3608V27.0057L47.6435 27.1548L40.7969 24.4062V21.5298L50.7969 25.9332V28.4332Z" fill="#8B5CF6"/>
<path d="M40.5426 17.7727L35.8551 35.1875H33.2486L37.9361 17.7727H40.5426Z" fill="#8B5CF6"/>
<path d="M32.8395 18.4545V33H29.7642V18.4545H32.8395Z" fill="#FAFAFA"/>
<path d="M26.9759 33.1847C26.5071 33.1847 26.1046 33.0189 25.7685 32.6875C25.437 32.3513 25.2713 31.9489 25.2713 31.4801C25.2713 31.0161 25.437 30.6184 25.7685 30.2869C26.1046 29.9555 26.5071 29.7898 26.9759 29.7898C27.4304 29.7898 27.8281 29.9555 28.169 30.2869C28.5099 30.6184 28.6804 31.0161 28.6804 31.4801C28.6804 31.7926 28.5999 32.0791 28.4389 32.3395C28.2827 32.5952 28.0767 32.8011 27.821 32.9574C27.5653 33.1089 27.2836 33.1847 26.9759 33.1847Z" fill="#8B5CF6"/>
<path d="M24.4304 18.4545V33H21.7741L15.446 23.8452H15.3395V33H12.2642V18.4545H14.9631L21.2415 27.6023H21.3693V18.4545H24.4304Z" fill="#FAFAFA"/>
<path d="M1.79688 28.4332V25.9332L11.7969 21.5298V24.4062L4.95028 27.1548L5.04261 27.0057V27.3608L4.95028 27.2116L11.7969 29.9602V32.8366L1.79688 28.4332Z" fill="#8B5CF6"/>
</svg>
